<?xml version="1.0" standalone="no"?>
<!DOCTYPE svg PUBLIC "-//W3C//DTD SVG 20010904//EN"
 "http://www.w3.org/TR/2001/REC-SVG-20010904/DTD/svg10.dtd">
<svg version="1.0" xmlns="http://www.w3.org/2000/svg"
 width="512.000000pt" height="512.000000pt" viewBox="0 0 512.000000 512.000000"
 preserveAspectRatio="xMidYMid meet">
<metadata>
Created by potrace 1.14, written by Peter Selinger 2001-2017
</metadata>
<g transform="translate(0.000000,512.000000) scale(0.100000,-0.100000)"
fill="#000000" stroke="none">
<path d="M1450 4620 c0 -5 5 -10 11 -10 5 0 7 5 4 10 -3 6 -8 10 -11 10 -2 0
-4 -4 -4 -10z"/>
<path d="M1514 4609 c-4 -7 -3 -9 4 -5 5 3 13 0 15 -6 4 -9 6 -10 6 -1 1 17
-16 25 -25 12z"/>
<path d="M1363 4598 c-11 -19 -13 -39 -1 -32 5 3 7 9 4 12 -3 3 -1 11 5 19 6
7 9 13 6 13 -3 0 -9 -6 -14 -12z"/>
<path d="M2536 4602 c-3 -5 1 -9 9 -9 8 0 12 4 9 9 -3 4 -7 8 -9 8 -2 0 -6 -4
-9 -8z"/>
<path d="M2601 4596 c-9 -10 -8 -15 3 -19 9 -4 18 -1 22 5 5 7 2 8 -6 3 -10
-6 -12 -4 -7 8 8 21 3 22 -12 3z"/>
<path d="M2474 4586 c1 -8 5 -18 8 -22 4 -3 5 1 4 10 -1 8 -5 18 -8 22 -4 3
-5 -1 -4 -10z"/>
<path d="M2413 4575 c0 -8 4 -12 9 -9 5 3 6 10 3 15 -9 13 -12 11 -12 -6z"/>
<path d="M2640 4575 c-7 -9 -8 -15 -2 -15 5 0 12 7 16 15 3 8 4 15 2 15 -2 0
-9 -7 -16 -15z"/>
<path d="M2673 4573 c-3 -7 -3 -19 0 -27 3 -8 -1 -20 -10 -28 -14 -11 -15 -10
-9 12 6 23 6 23 -5 5 -7 -11 -17 -23 -23 -27 -6 -4 -11 -15 -11 -24 0 -9 -9
-22 -20 -28 -11 -6 -23 -15 -27 -21 -4 -5 -10 -6 -14 -2 -4 4 -13 2 -20 -4
-11 -9 -16 -5 -24 16 -7 17 -14 24 -22 18 -18 -11 -39 -13 -33 -3 3 5 1 11 -5
15 -6 3 -13 -1 -16 -9 -6 -16 -25 -23 -23 -8 3 18 -2 32 -12 32 -6 0 -9 -7 -6
-14 4 -10 1 -13 -8 -9 -8 3 -12 10 -9 15 4 6 1 8 -7 6 -8 -3 -13 -11 -11 -17
2 -9 -3 -9 -18 -1 -19 10 -25 6 -21 -14 1 -5 -4 -4 -11 2 -9 7 -19 8 -28 2
-21 -13 -32 -12 -27 3 6 18 -12 49 -25 41 -7 -5 -5 -12 8 -22 18 -13 18 -14
-3 -7 -19 5 -22 3 -17 -12 3 -11 2 -14 -3 -7 -11 14 -143 14 -143 0 0 -6 -4
-4 -10 4 -8 12 -10 12 -15 -2 -4 -10 -3 -22 1 -29 4 -8 3 -9 -4 -5 -7 4 -12
13 -12 19 0 7 -8 21 -17 32 -13 16 -15 17 -10 3 5 -13 1 -18 -13 -18 -11 0
-20 -5 -20 -11 0 -5 5 -7 11 -3 8 4 8 0 0 -15 -12 -22 -31 -29 -31 -10 0 5 5
7 10 4 6 -3 10 -2 10 3 0 17 -13 22 -27 10 -7 -6 -16 -8 -19 -5 -4 3 10 14 30
23 20 10 36 21 36 25 0 10 -40 22 -47 15 -4 -3 1 -6 10 -6 10 0 17 -4 17 -10
0 -5 -4 -10 -9 -10 -5 0 -17 -3 -25 -6 -12 -5 -15 -2 -10 10 7 18 -20 23 -31
6 -3 -5 -11 -10 -17 -10 -6 0 -5 7 3 18 13 15 12 16 -3 4 -10 -8 -19 -9 -22
-3 -3 5 -1 11 6 13 7 3 5 7 -6 11 -10 4 -15 3 -11 -3 3 -6 1 -10 -5 -10 -7 0
-9 -8 -5 -20 5 -15 3 -18 -8 -14 -8 3 -18 1 -21 -5 -4 -6 -14 -7 -24 -4 -11 4
-6 -6 13 -26 16 -18 23 -30 15 -26 -11 4 -16 -1 -17 -15 -1 -11 2 -20 8 -20 5
0 9 5 9 10 0 6 5 10 10 10 6 0 5 -8 -2 -19 -8 -14 -16 -17 -24 -10 -8 7 -14 6
-17 -3 -4 -9 -6 -8 -6 3 -1 12 -12 15 -52 14 -40 -1 -53 3 -64 18 -10 14 -21
18 -39 15 -15 -3 -34 1 -43 9 -10 8 -12 11 -4 7 10 -5 12 -3 6 6 -5 8 -3 11 6
8 8 -3 13 -11 11 -17 -1 -7 2 -10 8 -6 16 10 12 21 -15 33 -19 9 -24 9 -22 -1
1 -6 -4 -11 -11 -9 -10 2 -10 -2 -1 -20 12 -22 11 -23 -8 -5 -11 10 -27 17
-34 15 -8 -2 -13 3 -12 10 2 6 -6 12 -18 12 -11 0 -18 4 -15 9 3 5 -5 8 -18 7
-17 -1 -23 -6 -21 -18 2 -10 -1 -18 -6 -18 -6 0 -7 -9 -4 -20 4 -12 2 -20 -6
-20 -9 0 -9 -3 1 -15 6 -8 9 -19 6 -24 -4 -5 -2 -13 4 -16 8 -5 7 -11 -1 -21
-9 -11 -8 -18 2 -31 10 -11 10 -14 2 -9 -7 4 -13 2 -13 -4 0 -6 -8 -10 -17 -8
-12 2 -17 -2 -15 -12 2 -8 0 -11 -4 -7 -16 15 -12 35 5 32 10 -2 18 3 18 10 0
8 -4 12 -8 10 -4 -3 -6 5 -5 18 2 14 -3 24 -11 25 -7 1 -19 3 -27 4 -8 1 -12
8 -9 17 3 10 1 12 -4 6 -11 -14 -33 -17 -33 -5 0 6 7 10 16 10 11 0 14 5 10
16 -4 10 1 25 10 36 27 29 10 31 -20 1 -20 -20 -24 -29 -14 -35 10 -7 10 -9
-2 -6 -8 3 -15 16 -15 31 -1 14 2 24 7 21 5 -3 19 1 32 9 26 17 44 10 40 -16
-1 -9 2 -15 7 -12 5 4 6 -2 3 -12 -5 -15 -4 -16 5 -3 8 11 11 12 11 2 0 -7 5
-10 11 -6 8 5 8 9 -1 14 -8 5 -9 13 -4 21 11 18 13 79 2 79 -4 0 -6 -14 -3
-31 4 -23 2 -29 -7 -23 -7 5 -25 9 -40 9 -15 0 -30 3 -33 7 -4 4 5 5 18 4 14
-2 31 1 39 5 9 6 7 8 -7 8 -11 -1 -33 2 -50 5 -16 4 -25 3 -20 -1 15 -12 17
-40 4 -49 -7 -4 -9 -3 -5 4 3 6 1 14 -5 18 -8 5 -9 3 -4 -6 6 -9 4 -12 -6 -8
-11 4 -14 -2 -13 -26 1 -17 3 -33 4 -36 1 -3 2 -9 1 -13 -1 -5 3 -6 9 -2 5 3
10 -1 10 -10 0 -9 -5 -13 -11 -9 -6 3 -3 -5 6 -20 10 -14 14 -26 10 -26 -5 0
-1 -8 8 -18 10 -10 14 -23 10 -28 -5 -5 2 0 15 10 23 20 31 10 10 -13 -11 -11
-10 -12 1 -6 11 6 13 4 8 -8 -4 -12 -2 -14 11 -10 15 6 16 5 2 -13 -11 -15
-11 -16 0 -6 18 16 38 16 22 0 -7 -7 -12 -16 -12 -20 0 -4 8 0 18 10 11 11 14
20 8 24 -6 4 -7 10 -3 14 9 9 37 -27 30 -39 -2 -4 -8 -5 -13 -2 -5 3 -12 0
-16 -7 -4 -7 -3 -10 1 -5 10 8 45 -64 37 -77 -3 -5 -9 -1 -13 10 -6 15 -8 15
-8 3 -1 -9 5 -21 12 -27 12 -10 18 -12 37 -12 5 0 9 -3 9 -7 -3 -20 2 -34 11
-28 6 3 10 -2 11 -12 0 -14 2 -14 9 5 5 12 14 22 20 22 14 0 13 -7 -7 -37 -10
-15 -13 -24 -8 -21 6 4 17 2 25 -3 13 -8 13 -10 0 -19 -9 -6 -11 -10 -3 -10 7
0 17 10 24 21 9 17 8 20 -2 14 -8 -5 -10 -4 -5 3 5 8 2 10 -8 6 -9 -3 -16 -1
-16 6 0 6 4 9 9 5 10 -6 27 33 22 50 -1 6 1 7 5 2 11 -11 12 -47 1 -40 -5 3
-7 0 -5 -8 3 -8 11 -13 18 -11 11 3 11 0 0 -12 -7 -9 -9 -16 -4 -16 4 0 3 -5
-4 -12 -7 -7 -12 -19 -11 -27 0 -9 5 -5 11 9 6 14 10 28 10 33 -1 4 2 7 8 7 5
0 7 -13 5 -28 -4 -33 8 -61 19 -43 4 6 12 11 18 11 6 0 5 -7 -3 -17 -10 -11
-10 -17 -3 -20 6 -2 20 -10 30 -18 18 -14 18 -14 -3 -10 -13 2 -24 1 -27 -3
-2 -4 19 -8 47 -10 36 -2 56 -8 64 -20 7 -9 17 -23 24 -30 9 -11 6 -17 -10
-28 -14 -11 -21 -26 -21 -50 0 -22 -6 -37 -16 -41 -9 -3 -13 -12 -9 -21 3 -9
3 -13 -1 -10 -11 12 -44 -11 -38 -26 3 -8 0 -17 -5 -21 -6 -3 -9 -10 -7 -14 3
-4 -1 -8 -8 -8 -9 0 -12 7 -8 16 3 9 -6 3 -19 -13 -15 -20 -19 -31 -11 -34 7
-2 12 -8 12 -14 0 -6 -9 -3 -21 8 -11 10 -20 14 -19 9 5 -23 -1 -37 -14 -32
-9 4 -13 -2 -12 -16 1 -12 -3 -25 -9 -29 -6 -5 -6 -8 3 -8 6 0 12 -5 12 -11 0
-5 -4 -8 -9 -5 -5 3 -14 -1 -21 -9 -9 -10 -9 -15 -1 -15 6 0 11 5 11 12 0 6 7
3 15 -8 13 -16 14 -16 9 -1 -3 9 -2 17 3 17 5 0 9 -11 9 -25 0 -18 -3 -22 -12
-14 -14 12 -40 -25 -36 -51 3 -13 2 -13 -7 0 -7 9 -6 19 1 27 6 7 7 13 2 13
-5 0 -2 5 6 10 8 5 10 10 4 10 -24 0 -55 -35 -48 -53 5 -15 9 -16 16 -5 7 9 8
7 5 -9 -3 -13 -1 -23 5 -23 5 0 6 -5 3 -10 -4 -6 -12 -7 -18 -3 -7 4 -5 -1 2
-11 13 -16 13 -18 0 -16 -7 1 -21 2 -29 1 -13 -1 -13 -3 -1 -10 9 -6 22 -6 33
0 12 6 24 6 36 0 11 -7 13 -10 3 -11 -10 0 -11 -3 -2 -13 8 -10 7 -19 -3 -33
-13 -17 -14 -15 -12 18 2 27 -1 35 -11 31 -8 -3 -11 -12 -8 -22 4 -9 8 -23 10
-31 1 -8 7 -14 13 -13 6 1 12 -4 15 -11 6 -15 -9 -16 -30 -3 -9 6 -11 3 -7 -8
4 -9 13 -14 21 -11 18 7 13 -25 -7 -41 -12 -9 -16 -8 -20 3 -4 11 -8 10 -17
-4 -9 -15 -8 -18 6 -17 9 0 23 5 31 10 9 5 15 4 18 -3 2 -7 7 -12 12 -12 9 0
8 19 -1 35 -4 6 2 24 12 40 20 32 26 27 8 -7 -10 -18 -9 -20 7 -14 18 6 18 5
0 -9 -20 -15 -20 -15 0 -16 15 0 16 -2 4 -7 -16 -8 -20 -45 -6 -59 5 -4 6 -3
2 4 -3 6 -2 14 3 17 10 7 9 -13 -2 -31 -4 -6 -3 -15 3 -18 8 -5 8 -11 0 -20
-8 -10 -8 -15 0 -20 7 -4 7 -11 2 -18 -5 -7 -8 -33 -8 -59 1 -25 -2 -44 -6
-41 -5 2 -8 0 -8 -6 0 -5 4 -12 9 -15 8 -5 8 -27 1 -46 -1 -3 -2 -9 -1 -13 1
-4 -8 -3 -20 3 -24 14 -65 22 -55 12 7 -7 11 -8 37 -11 5 0 8 -5 5 -10 -3 -4
1 -17 10 -27 14 -18 14 -17 3 6 -12 25 -12 25 8 5 25 -25 7 -40 -32 -25 -17 7
-24 7 -20 0 3 -6 13 -10 22 -10 10 0 13 -6 9 -17 -6 -16 -6 -16 12 0 21 19 32
22 32 6 0 -5 -4 -7 -10 -4 -5 3 -10 1 -10 -4 0 -6 6 -11 13 -11 8 0 8 -3 -2
-9 -12 -8 -12 -12 -2 -25 11 -12 11 -16 1 -16 -10 0 -10 -3 0 -15 7 -8 9 -15
6 -15 -4 0 -2 -9 4 -20 6 -11 7 -20 3 -19 -18 3 -27 -2 -16 -9 8 -5 9 -13 3
-22 -8 -13 -10 -12 -10 3 0 15 -3 16 -22 6 -13 -7 -24 -12 -25 -11 -11 7 -15
0 -5 -10 16 -16 15 -31 0 -21 -17 10 -42 14 -33 5 4 -4 12 -7 17 -7 6 0 13 -6
16 -13 2 -7 -2 -10 -12 -6 -9 3 -16 1 -16 -6 0 -6 -5 -8 -12 -4 -10 6 -10 4
-2 -7 6 -8 14 -24 17 -37 5 -20 3 -22 -11 -10 -13 11 -14 11 -7 -1 6 -11 4
-13 -11 -8 -17 6 -17 5 -3 -5 8 -7 15 -25 14 -40 -1 -16 2 -28 7 -28 7 0 9 8
7 26 0 3 8 12 18 20 15 11 15 13 2 8 -10 -3 -20 -1 -24 5 -3 7 0 8 10 5 12 -5
14 -1 12 17 -4 26 19 69 37 69 6 0 5 -4 -3 -9 -11 -7 -11 -9 0 -14 9 -4 8 -6
-5 -6 -15 -1 -16 -4 -6 -16 7 -8 17 -12 24 -8 6 3 5 0 -2 -8 -11 -12 -14 -12
-21 0 -6 8 -11 9 -15 3 -3 -6 -2 -13 3 -17 5 -3 9 -14 8 -25 -1 -10 -4 -17 -8
-14 -8 5 -22 -27 -14 -34 3 -3 5 -1 5 5 0 5 7 10 15 10 8 0 12 -4 9 -8 -2 -4
2 -10 8 -13 7 -3 2 -3 -10 0 -23 6 -23 5 -7 -19 18 -29 50 -29 51 -1 0 10 -7
28 -15 39 -15 18 -15 19 1 7 13 -10 17 -10 20 0 3 7 5 -8 4 -33 0 -40 -3 -46
-21 -45 -11 1 -19 -5 -17 -11 1 -7 -3 -13 -8 -13 -6 0 -10 6 -8 14 2 8 -1 14
-7 13 -5 -1 -9 -5 -7 -9 8 -25 4 -33 -18 -45 -18 -9 -20 -13 -8 -13 9 0 20 5
23 10 4 6 11 7 17 4 6 -4 8 -3 5 3 -3 5 1 10 10 10 11 0 7 -8 -13 -24 -24 -20
-25 -24 -9 -21 11 2 27 13 36 26 14 20 17 21 23 7 3 -9 2 -14 -3 -11 -11 7
-35 -40 -26 -54 5 -8 10 -8 21 1 10 8 14 8 14 0 0 -6 -4 -11 -10 -11 -5 0 -10
-5 -10 -11 0 -5 4 -8 9 -4 16 9 3 -36 -15 -56 -16 -18 -15 -19 6 -27 l24 -9
-24 -6 c-16 -4 -21 -11 -18 -25 3 -12 -2 -23 -14 -31 -17 -10 -22 -9 -35 6
-13 16 -13 15 0 -8 16 -27 12 -42 -13 -52 -8 -3 -1 -4 16 -4 17 1 31 7 31 14
0 7 -4 10 -9 7 -4 -3 -5 2 -2 10 3 9 11 13 17 9 6 -4 7 -1 2 8 -8 12 -6 12 8
0 18 -15 23 -26 7 -16 -5 3 -10 1 -10 -4 0 -6 6 -11 12 -11 7 0 2 -7 -10 -16
-12 -8 -20 -20 -17 -25 4 -5 -5 -14 -20 -21 -24 -11 -24 -12 -9 -30 10 -10 25
-18 36 -18 10 0 18 -5 18 -11 0 -5 -4 -8 -8 -5 -4 2 -8 -4 -8 -15 0 -19 1 -19
13 -3 12 16 18 12 14 -9 -1 -5 3 -6 9 -2 7 4 7 12 0 26 -6 10 -7 19 -3 19 5 0
14 -14 21 -30 8 -17 17 -28 22 -25 4 3 13 -2 20 -11 11 -12 11 -17 0 -27 -7
-7 -10 -7 -7 -2 3 6 2 17 -4 25 -7 13 -9 13 -9 0 -1 -9 -6 -5 -15 10 -8 14
-14 20 -15 13 0 -6 11 -25 25 -41 19 -23 22 -32 12 -42 -10 -10 -9 -11 3 -4 8
5 18 9 22 9 3 0 10 4 15 9 5 5 3 6 -4 2 -9 -5 -11 -2 -6 9 4 13 8 14 14 4 4
-7 5 -17 3 -21 -3 -5 5 -13 18 -18 23 -11 23 -11 1 -6 -13 2 -23 1 -24 -2 -6
-49 -5 -51 8 -40 11 9 12 13 1 20 -9 5 -6 7 9 5 12 -2 26 -7 30 -11 5 -4 1 -6
-7 -4 -9 2 -15 -4 -15 -14 0 -9 -4 -20 -9 -25 -5 -5 -6 -2 -1 7 8 13 7 13 -8
1 -9 -7 -17 -19 -17 -25 0 -6 4 -5 9 3 5 7 11 9 14 4 3 -5 2 -15 -4 -23 -5 -8
-9 -19 -8 -25 0 -5 6 1 13 15 8 14 12 28 10 32 -3 5 0 8 5 8 14 0 14 -6 0 -31
-7 -15 -7 -24 1 -34 8 -10 8 -14 -2 -18 -10 -4 -10 -6 0 -6 18 -1 15 -31 -5
-53 -10 -11 -13 -19 -8 -18 20 4 36 0 31 -9 -3 -5 0 -14 7 -20 10 -8 14 -7 14
4 0 8 -5 11 -10 8 -6 -3 -7 -1 -3 5 12 20 24 13 24 -13 0 -29 -1 -29 -36 -11
-25 13 -28 13 -28 -4 0 -10 5 -18 11 -17 5 1 10 -5 10 -13 0 -8 -5 -15 -12
-15 -6 0 -14 -3 -18 -6 -3 -4 3 -6 14 -5 11 0 19 -3 18 -9 -1 -5 -5 -9 -9 -8
-4 2 -5 -4 -1 -12 5 -14 7 -13 18 1 10 14 13 15 20 3 16 -24 14 -59 -3 -69
-16 -9 -16 -9 0 -10 9 0 19 9 23 19 4 13 12 18 23 15 14 -5 15 -4 2 5 -8 6
-11 11 -7 11 4 0 2 10 -5 22 -7 13 -11 26 -10 31 1 4 -3 6 -9 5 -6 -2 -17 8
-26 22 -14 23 -14 24 1 6 11 -14 16 -16 16 -6 0 9 6 6 16 -8 8 -12 19 -20 23
-18 7 5 11 -9 12 -47 0 -9 5 -15 10 -11 5 3 8 0 7 -8 -2 -7 2 -12 8 -11 18 3
12 -26 -7 -32 -12 -4 -16 -12 -12 -22 4 -11 3 -14 -6 -9 -7 5 -10 14 -8 20 10
25 -8 36 -22 15 -7 -12 -8 -18 -2 -14 6 3 11 0 11 -8 0 -7 11 -20 25 -27 13
-7 22 -17 19 -21 -2 -4 0 -10 6 -14 13 -8 13 -45 0 -45 -5 0 -7 6 -4 13 3 8
-5 25 -17 38 l-21 24 14 -25 c8 -14 13 -37 12 -52 -2 -21 2 -28 14 -28 15 0
15 2 2 10 -8 5 -11 10 -7 10 5 0 19 -8 32 -18 22 -18 22 -19 5 -30 -12 -7 -21
-8 -25 -2 -3 6 1 10 10 10 9 0 13 5 10 10 -5 8 -11 7 -20 0 -8 -7 -20 -9 -27
-5 -7 3 -3 -2 10 -11 12 -9 22 -21 22 -26 0 -6 -6 -6 -14 1 -11 9 -16 9 -22 0
-4 -7 -3 -9 4 -5 6 3 14 1 17 -4 5 -8 14 -5 28 7 l21 18 -17 -27 c-10 -16 -13
-28 -8 -28 6 0 14 8 20 18 9 15 10 15 8 -5 0 -12 -5 -19 -9 -17 -4 3 -8 0 -8
-6 0 -8 -6 -8 -20 0 -16 9 -18 8 -14 -5 3 -8 10 -13 14 -10 4 3 13 -2 20 -10
7 -8 9 -15 6 -15 -4 0 -1 -6 6 -14 7 -8 18 -11 23 -8 6 2 4 -1 -2 -9 -22 -23
-14 -33 10 -13 20 17 20 17 -2 -8 -18 -21 -21 -31 -13 -41 9 -11 7 -13 -9 -12
-11 1 -25 8 -30 16 -5 8 -9 9 -9 3 0 -15 25 -36 33 -27 4 3 7 -8 7 -26 0 -18
-4 -30 -8 -27 -5 3 -9 -1 -9 -9 0 -11 4 -12 13 -4 8 7 14 7 19 -1 3 -5 1 -10
-6 -10 -7 0 -9 -3 -6 -6 4 -4 13 -1 22 6 19 16 27 8 31 -25 2 -17 -1 -23 -9
-19 -8 5 -8 3 1 -7 15 -16 16 -33 0 -23 -7 4 -8 3 -4 -5 6 -9 11 -9 21 -1 14
12 28 -10 19 -33 -3 -8 4 -13 18 -14 13 0 17 1 11 4 -7 3 -13 12 -13 21 0 15
2 15 11 2 9 -13 10 -13 6 0 -2 8 -8 15 -13 14 -5 -1 -18 8 -28 19 -16 17 -17
19 -3 14 46 -19 53 -19 33 -3 -11 9 -15 16 -9 16 7 0 19 -7 27 -16 17 -17 21
-28 7 -20 -5 3 -8 -5 -7 -19 0 -14 6 -25 11 -25 6 0 6 -3 -1 -8 -14 -9 -24
-51 -14 -57 5 -3 7 -15 5 -26 -4 -17 -2 -19 11 -9 12 10 12 16 2 28 -10 13
-10 14 0 8 7 -4 12 -2 12 4 0 7 -7 9 -17 5 -14 -5 -15 -3 -6 6 16 16 31 4 31
-26 0 -15 -10 -32 -21 -40 -12 -8 -16 -15 -10 -15 7 0 14 4 18 10 9 14 32 1
38 -22 3 -11 10 -17 16 -13 6 3 11 2 11 -3 0 -5 -9 -12 -19 -15 -15 -3 -18 -1
-14 11 4 10 2 13 -5 8 -8 -5 -10 -2 -6 8 3 9 1 16 -6 16 -6 0 -9 -4 -6 -9 4
-5 0 -12 -6 -14 -10 -4 -10 -6 0 -6 6 -1 12 -6 12 -12 0 -5 -4 -8 -9 -4 -5 3
-12 1 -16 -4 -3 -6 3 -8 15 -6 11 2 22 0 25 -6 4 -5 12 -9 18 -9 7 0 6 4 -3
11 -13 9 -13 10 0 6 8 -2 14 -10 13 -16 -2 -6 1 -11 6 -11 14 0 21 -29 9 -36
-6 -4 -8 -3 -4 4 11 18 -11 23 -25 5 -8 -10 -9 -14 -2 -10 6 4 14 3 18 -3 3
-6 -4 -15 -17 -20 -21 -9 -21 -9 7 -6 17 2 29 9 28 15 -4 17 14 13 21 -5 4 -9
2 -13 -5 -8 -7 4 -10 1 -7 -7 3 -8 14 -13 24 -11 18 2 18 2 2 -8 -10 -6 -18
-20 -18 -30 0 -10 -5 -22 -12 -26 -7 -5 -9 -1 -6 12 3 10 7 25 9 33 5 16 -37
26 -46 11 -4 -6 1 -7 12 -3 16 6 17 5 3 -13 -14 -18 -14 -18 4 -4 18 14 19 14
12 -5 -14 -34 -14 -73 0 -71 8 1 17 6 21 11 4 4 2 5 -4 1 -15 -8 -18 10 -3 19
9 6 14 -8 11 -29 -1 -4 4 -14 10 -22 8 -10 8 -14 0 -14 -6 0 -11 5 -11 10 0 6
-9 10 -20 10 -25 0 -27 -20 -2 -21 10 0 12 -3 4 -6 -6 -2 -10 -8 -8 -12 3 -4
0 -8 -7 -9 -7 0 -22 -3 -35 -6 -13 -3 -20 -1 -17 5 8 12 -8 12 -22 -2 -7 -7
-10 -5 -9 8 0 10 -3 19 -8 20 -5 1 -12 7 -17 14 -4 8 -11 10 -15 6 -4 -4 1
-15 10 -26 13 -14 14 -21 5 -27 -8 -5 -10 -3 -4 6 5 8 3 11 -6 8 -8 -3 -13
-12 -11 -21 1 -8 -1 -18 -6 -21 -5 -3 -9 5 -9 17 -1 40 -3 48 -12 43 -5 -4 -8
-17 -6 -31 1 -14 -5 -30 -14 -37 -14 -12 -14 -11 -2 5 7 9 9 17 3 17 -11 0
-45 -48 -48 -68 -1 -7 3 -11 9 -9 7 3 11 10 9 16 -1 8 4 8 18 -1 18 -12 18
-13 2 -22 -24 -14 -52 -15 -45 -2 3 6 0 5 -8 -2 -11 -10 -9 -15 10 -28 13 -9
20 -22 17 -31 -3 -8 -2 -12 2 -9 5 3 9 -2 9 -10 0 -8 -6 -13 -12 -10 -7 2 -18
0 -26 -6 -11 -8 -10 -9 4 -4 13 4 20 0 24 -14 5 -20 7 -20 1332 -17 729 2
1331 5 1337 7 6 2 16 11 22 20 7 12 7 17 -4 17 -7 0 -11 -4 -8 -9 3 -4 0 -8
-5 -8 -6 0 -11 5 -11 10 0 6 -5 10 -11 10 -5 0 -7 -4 -4 -10 3 -6 -1 -7 -10
-3 -13 5 -14 7 -3 14 10 7 10 9 -2 9 -13 0 -13 1 0 10 11 7 7 8 -14 6 -35 -4
-65 19 -59 44 7 26 -15 35 -38 14 -11 -10 -19 -12 -19 -6 0 7 5 12 10 12 6 0
10 7 10 15 0 8 -5 15 -11 15 -5 0 -8 -4 -5 -8 3 -5 -2 -9 -10 -9 -9 0 -13 6
-9 16 4 9 7 18 8 21 1 3 -3 5 -8 5 -5 0 -9 -3 -8 -6 1 -3 -4 -6 -11 -6 -8 0
-12 11 -11 28 1 16 -2 26 -7 23 -5 -3 -15 0 -23 6 -8 7 -22 10 -30 6 -20 -7
-19 4 2 19 16 12 14 12 -10 8 -17 -3 -27 -1 -27 6 0 7 -4 9 -10 6 -5 -3 -10 1
-10 10 0 9 4 13 10 10 6 -3 7 1 3 10 -5 13 -7 14 -14 3 -7 -10 -10 -8 -15 8
-7 25 -60 68 -74 59 -6 -3 -10 1 -10 11 0 14 -2 15 -17 3 -11 -10 -14 -10 -9
-1 4 7 2 12 -4 12 -6 0 -9 4 -5 9 3 5 1 12 -5 16 -6 4 -7 12 -4 18 4 7 3 8 -2
4 -5 -5 -9 -14 -9 -20 0 -5 -7 -12 -15 -14 -9 -3 -11 -1 -5 4 12 10 19 44 8
42 -23 -4 -35 2 -30 16 4 8 1 17 -5 21 -7 4 -8 3 -4 -4 4 -7 2 -12 -3 -12 -6
0 -11 7 -11 15 0 8 -5 15 -12 15 -6 0 -3 6 8 14 14 11 15 14 4 14 -43 -3 -51
2 -45 23 5 16 3 20 -6 17 -8 -3 -13 -15 -11 -26 2 -12 0 -22 -5 -22 -13 0 -13
53 0 70 7 8 2 7 -10 -3 -22 -19 -32 -14 -28 14 2 11 -4 16 -19 15 -11 -1 -22
4 -23 9 -2 6 9 9 22 9 36 -2 22 9 -17 13 -18 2 -36 -2 -41 -9 -6 -10 -7 -8 -4
3 3 9 1 21 -5 27 -6 6 -6 12 3 17 8 5 10 4 5 -3 -5 -8 -1 -10 9 -6 14 6 13 8
-5 21 -11 8 -17 19 -14 25 4 6 -2 6 -15 -1 -20 -11 -25 -8 -22 12 1 5 -4 5
-10 2 -12 -8 -59 13 -59 27 0 5 11 1 24 -7 16 -11 26 -13 31 -5 3 6 1 9 -7 8
-8 -2 -12 5 -10 17 2 16 1 17 -7 5 -9 -12 -11 -9 -11 13 0 15 -5 27 -11 27 -5
0 -8 -4 -5 -8 3 -5 -1 -9 -9 -9 -8 0 -11 5 -7 11 10 16 8 70 -3 79 -6 4 -4 11
5 17 12 9 12 10 -5 8 -11 -2 -20 2 -20 9 0 6 -4 15 -8 20 -5 4 -7 1 -5 -7 2
-8 -3 -14 -10 -12 -8 1 -11 -2 -7 -8 3 -6 11 -8 16 -5 5 3 6 -1 2 -10 -5 -13
-7 -14 -14 -3 -7 11 -12 11 -31 -1 l-23 -14 20 23 20 23 -23 -8 c-22 -6 -23
-5 -11 17 11 21 11 22 -4 10 -14 -12 -16 -11 -12 9 4 17 2 20 -7 11 -22 -22
-29 -12 -12 16 14 24 14 25 0 8 -9 -11 -19 -16 -23 -13 -3 4 -3 7 0 7 4 0 -3
10 -15 22 l-21 21 26 23 c14 12 23 25 20 28 -4 3 -1 6 5 6 7 0 12 -5 12 -11 0
-5 4 -8 10 -4 5 3 7 12 4 20 -4 8 -11 12 -17 8 -6 -3 -7 -1 -3 6 6 9 11 9 22
0 12 -10 13 -9 8 5 -4 11 -14 16 -25 13 -11 -3 -22 0 -26 5 -3 6 -1 8 5 4 6
-3 13 -2 16 3 3 5 -8 11 -24 15 -17 3 -30 11 -30 17 0 8 4 8 15 -1 13 -11 14
-10 10 1 -3 8 -15 20 -27 28 -18 11 -20 11 -15 -3 3 -8 2 -18 -2 -20 -5 -3 -8
5 -7 17 1 12 -3 25 -8 29 -6 4 -7 10 -3 14 4 4 16 -1 27 -11 16 -15 23 -16 33
-6 9 10 8 11 -5 6 -12 -5 -20 -1 -24 9 -3 9 -12 16 -20 16 -16 0 -17 7 -3 35
8 18 9 17 5 -5 -5 -24 -4 -24 9 -6 8 10 12 23 9 27 -3 5 2 6 11 2 13 -5 14 -7
3 -14 -10 -7 -10 -9 0 -9 6 0 15 0 19 0 4 0 8 11 9 25 1 18 -2 23 -10 15 -15
-15 -30 -12 -17 4 15 18 3 26 -32 22 -21 -3 -25 0 -18 13 5 9 7 24 6 33 -2 10
0 18 4 18 4 0 7 9 8 20 1 11 -3 20 -8 20 -6 0 -7 5 -4 10 3 6 2 10 -4 10 -7 0
-7 8 -1 25 7 18 6 23 -4 19 -7 -3 -19 3 -27 13 -12 16 -12 17 1 6 12 -9 15 -7
17 14 1 18 -2 22 -7 12 -5 -7 -12 -10 -16 -6 -4 3 -1 14 7 24 12 15 12 16 -2
11 -13 -5 -16 3 -18 45 -3 76 18 250 31 262 8 7 9 6 4 -2 -9 -17 6 -17 23 0
11 10 13 9 7 -3 -4 -8 0 -6 9 5 20 25 76 30 68 6 -3 -13 -2 -12 7 2 6 9 16 14
22 11 7 -5 8 -2 2 7 -12 20 -16 51 -5 44 5 -3 13 0 17 6 4 7 3 9 -4 5 -6 -3
-13 -2 -17 4 -3 5 2 10 12 10 15 0 16 2 3 10 -11 7 -17 4 -24 -10 -5 -11 -14
-20 -20 -20 -6 0 -5 5 2 12 19 19 14 32 -5 17 -16 -13 -17 -12 -5 3 8 10 17
17 20 16 20 -2 25 3 12 12 -13 8 -13 11 -1 22 11 11 13 11 6 -1 -5 -9 -4 -12
3 -7 20 12 13 29 -9 23 -16 -4 -18 -3 -9 8 6 8 17 13 23 11 7 -1 9 -1 4 1 -4
3 -5 9 -2 14 4 5 -1 6 -10 3 -20 -8 -16 15 5 34 13 11 12 12 -4 4 -14 -7 -28
-4 -53 10 -35 21 -46 36 -13 18 16 -8 18 -8 14 4 -3 8 0 17 5 21 6 3 9 10 6
15 -3 5 4 11 15 15 11 3 20 11 20 16 0 6 -4 8 -9 4 -5 -3 -13 0 -17 6 -4 8 -3
9 4 5 7 -4 12 -3 12 3 0 5 -5 11 -12 13 -7 3 -5 7 6 11 9 4 15 3 12 -2 -3 -5
2 -17 12 -28 9 -10 14 -14 10 -8 -4 7 -5 15 -1 18 3 4 1 7 -6 7 -7 0 -10 4 -6
9 3 5 1 12 -4 16 -6 3 -9 11 -7 18 1 7 1 8 -2 4 -2 -4 -11 -2 -20 5 -13 11
-15 11 -7 -2 6 -12 6 -13 -6 -2 -12 11 -12 14 0 21 11 7 11 9 0 13 -8 3 -19
-2 -24 -9 -9 -12 -11 -11 -11 5 0 15 6 19 23 17 13 -1 26 2 30 8 3 6 1 7 -5 3
-7 -4 -12 -2 -12 4 0 7 -7 10 -15 6 -22 -8 -18 2 6 15 13 6 19 7 15 1 -7 -12
19 -10 31 2 4 4 1 6 -7 4 -9 -2 -14 4 -14 14 1 10 -2 15 -7 12 -5 -3 -9 2 -9
10 0 8 -8 20 -17 25 -25 14 -7 14 20 -1 19 -10 20 -9 10 4 -10 11 -10 17 0 27
9 10 9 12 -3 9 -8 -2 -14 2 -13 9 2 7 -6 10 -18 8 -18 -4 -20 0 -17 20 3 13 1
22 -3 19 -5 -3 -9 -14 -9 -25 0 -12 -4 -17 -11 -14 -6 4 -8 9 -5 12 3 3 1 14
-4 24 -7 12 -6 20 2 25 7 4 8 3 4 -4 -4 -7 -2 -12 4 -12 7 0 9 7 6 16 -3 9 -6
18 -6 21 0 3 -6 0 -14 -6 -10 -8 -16 -9 -21 -1 -4 6 -3 10 2 9 21 -4 24 2 12
19 -12 15 -12 16 2 5 9 -7 20 -9 24 -5 5 4 5 2 2 -4 -4 -7 1 -18 11 -25 15
-13 16 -12 3 4 -7 9 -10 17 -5 17 5 0 0 7 -10 15 -11 8 -14 15 -7 15 7 0 9 5
6 10 -5 8 -11 7 -21 -1 -9 -7 -14 -8 -14 -1 0 6 -8 12 -17 14 -15 3 -14 5 5
10 12 3 20 2 17 -2 -3 -5 3 -8 13 -7 18 1 29 37 11 37 -6 0 -8 -4 -5 -9 3 -5
-6 -8 -19 -8 -14 0 -28 4 -31 8 -3 5 -9 7 -14 4 -4 -3 -7 6 -5 20 1 14 -1 25
-5 25 -13 0 -7 35 9 47 22 17 40 16 37 -2 -3 -22 -16 -31 -16 -10 0 22 -13 12
-16 -12 -5 -30 8 -35 24 -11 9 13 16 26 14 31 -3 10 16 9 22 -2 3 -5 -1 -14
-8 -21 -8 -6 -13 -20 -11 -32 4 -17 1 -19 -23 -13 -20 5 -24 4 -16 -5 14 -14
49 -10 45 5 -1 5 7 12 18 17 12 4 21 13 20 20 0 10 -2 10 -6 1 -2 -7 -12 -13
-21 -13 -12 0 -11 4 6 23 16 17 19 26 11 34 -6 6 -17 9 -25 6 -9 -3 -12 2 -9
16 2 12 0 19 -4 16 -5 -2 -11 4 -14 16 -4 16 -2 19 16 14 21 -6 21 -5 -1 8
-21 12 -22 15 -8 26 14 11 16 11 16 -4 0 -10 3 -16 6 -12 4 3 4 14 0 23 -5 13
-9 14 -21 4 -12 -10 -15 -9 -16 4 -3 36 -5 40 -18 44 -9 3 -11 0 -6 -8 6 -9 4
-11 -4 -5 -10 6 -10 11 2 22 14 15 42 10 33 -6 -3 -4 4 -8 16 -8 18 -2 18 0
-5 21 l-25 23 31 18 c16 10 27 13 23 7 -5 -8 -1 -10 10 -5 11 4 13 8 6 11 -7
2 -9 9 -5 15 4 7 0 8 -11 4 -9 -4 -14 -3 -11 2 3 5 -5 17 -17 25 -12 9 -17 16
-11 16 6 0 18 -6 25 -12 7 -7 20 -14 28 -16 10 -1 8 3 -5 14 -11 8 -19 20 -17
25 1 6 -7 8 -20 4 -20 -5 -19 -3 4 10 18 10 26 21 23 35 -2 11 1 22 6 25 5 4
7 11 3 16 -4 6 -11 6 -20 -2 -17 -14 -19 2 -1 20 7 9 7 11 1 8 -19 -11 -25 22
-6 32 11 7 12 11 4 11 -7 0 -11 4 -8 9 3 5 -2 8 -12 7 -9 0 -16 5 -15 12 3 11
-10 16 -30 13 -5 -1 -6 3 -2 9 4 7 12 7 25 0 23 -12 30 -13 30 -2 0 5 -12 13
-27 18 -24 8 -25 11 -10 17 10 4 16 3 13 -1 -3 -5 1 -9 8 -9 7 0 13 6 13 13 0
7 -4 11 -9 8 -13 -8 -9 20 5 35 10 11 10 13 0 7 -7 -4 -13 -3 -13 3 0 5 5 11
12 13 7 3 5 7 -6 11 -11 5 -15 3 -10 -5 4 -7 3 -8 -4 -4 -15 9 -16 -6 -2 -20
7 -7 5 -17 -5 -30 -12 -16 -14 -16 -9 -1 4 11 1 17 -7 17 -11 0 -11 3 1 10 10
7 11 10 2 10 -10 0 -10 4 0 20 7 11 17 19 23 17 5 -2 16 3 23 12 11 14 12 14
10 -3 -2 -10 3 -20 10 -22 7 -1 8 0 2 3 -6 3 -7 11 0 23 10 19 -2 22 -27 7 -8
-5 -13 -3 -13 7 0 16 11 20 39 17 7 -2 10 3 6 9 -4 6 -13 9 -21 6 -7 -3 -16
-1 -19 3 -6 11 24 23 37 15 6 -4 6 2 -1 14 -14 26 -14 35 -1 27 6 -4 7 1 3 12
-6 16 -5 17 13 3 18 -14 18 -14 2 5 -20 24 -6 59 20 51 22 -7 49 9 33 18 -8 5
-8 13 0 28 9 16 8 23 -2 29 -13 8 -5 13 16 9 5 -1 1 7 -8 18 -11 11 -14 23 -9
26 6 3 13 -2 17 -12 6 -15 8 -15 25 5 9 12 20 20 22 18 3 -3 5 2 5 10 0 8 -4
12 -9 9 -4 -3 -8 2 -8 11 0 11 5 15 16 11 9 -3 12 -2 9 5 -4 6 -13 8 -19 6 -7
-3 -13 1 -13 8 0 7 6 11 14 8 7 -3 13 0 13 7 0 6 5 8 10 5 6 -4 8 -11 5 -16
-3 -5 1 -6 9 -3 18 7 30 35 13 31 -7 -1 -11 3 -10 10 2 8 -4 10 -15 6 -15 -6
-15 -5 -3 10 7 9 18 14 23 11 6 -4 6 2 -1 13 -6 11 -8 22 -6 25 2 2 -5 5 -17
5 -21 2 -38 19 -38 39 0 6 16 10 35 9 19 -1 32 2 29 7 -3 4 -9 6 -14 3 -4 -3
-11 1 -13 7 -4 10 -6 10 -6 0 -1 -10 -6 -10 -23 -1 l-21 11 24 18 c13 10 28
16 33 13 5 -4 6 -1 1 6 -5 9 -10 10 -18 2 -13 -13 -30 -15 -23 -2 3 5 -1 12
-9 15 -12 4 -13 2 -5 -13 8 -15 6 -20 -10 -24 -11 -3 -18 0 -17 7 1 6 -4 10
-11 8 -8 -1 -11 2 -7 8 5 8 12 7 23 -2 15 -12 16 -11 3 5 -7 9 -10 17 -7 17 4
0 1 7 -8 15 -16 17 -30 20 -21 6 3 -5 0 -13 -6 -16 -5 -4 -8 -13 -6 -19 3 -7
-1 -13 -8 -13 -7 0 -11 6 -8 14 4 9 0 11 -13 6 -13 -5 -15 -3 -9 7 5 9 4 11
-4 6 -6 -4 -25 -9 -40 -11 -24 -3 -31 1 -41 25 -7 17 -16 27 -21 24 -5 -3 -12
2 -15 11 -6 13 -9 14 -16 3 -6 -9 -7 -6 -3 10 4 13 2 22 -4 22 -6 0 -11 -5
-11 -11 0 -5 -4 -8 -10 -4 -5 3 -8 11 -6 18 1 7 1 9 -1 4 -3 -4 -10 -4 -15 -1
-7 5 -8 2 -3 -6 6 -9 2 -10 -15 -5 -26 8 -40 18 -76 54 -18 18 -30 22 -50 17
-14 -4 -31 -3 -37 3 -12 9 -18 11 -37 11 -5 0 -10 4 -10 9 0 8 21 8 40 1 3 -1
9 -2 13 -1 5 1 6 -3 2 -9 -3 -6 0 -7 9 -4 18 7 21 30 6 39 -6 4 -16 3 -23 -2
-14 -11 -27 -11 -45 1 -8 5 -20 2 -31 -8 -10 -9 -21 -13 -25 -9 -14 15 -80 9
-98 -9 -9 -9 -13 -20 -10 -24 4 -3 -3 -1 -15 5 -24 12 -31 31 -12 31 5 0 8 4
4 10 -3 5 -12 7 -19 4 -8 -3 -17 -1 -21 5 -3 6 0 9 8 5 8 -3 14 2 14 11 0 9
-6 14 -13 11 -8 -3 -16 -1 -19 4 -3 5 -14 9 -25 9 -11 1 -29 1 -41 2 -14 0
-19 5 -15 15 3 9 2 12 -5 9 -5 -4 -17 -1 -26 7 -14 11 -16 11 -11 -3 3 -9 2
-22 -3 -30 -6 -9 -9 -10 -9 -2 0 7 -6 10 -13 7 -23 -8 -15 49 10 76 18 20 21
27 10 35 -14 11 -16 29 -5 40 4 4 13 -2 20 -14 7 -12 16 -21 21 -21 4 0 6 4 2
9 -3 5 0 13 6 17 7 4 16 -1 21 -11 9 -14 12 -15 20 -4 8 11 9 11 5 -1 -2 -8
-10 -14 -16 -12 -6 1 -11 -3 -11 -9 0 -5 10 -9 22 -7 12 2 23 -3 25 -12 4 -12
3 -12 -5 -1 -17 24 -21 -11 -4 -39 l14 -25 -21 25 c-14 16 -19 19 -15 8 3 -10
2 -18 -4 -18 -12 0 -11 18 2 39 6 9 5 12 -5 9 -18 -6 -19 -75 -2 -75 7 0 10 5
7 11 -3 6 1 3 8 -6 13 -15 15 -15 26 0 7 9 10 11 6 3 -5 -9 -3 -12 4 -7 7 4
12 1 12 -8 0 -10 6 -13 15 -10 17 7 21 25 4 22 -6 -2 -14 3 -16 10 -9 23 22 8
39 -20 20 -32 28 -35 28 -12 0 8 -4 13 -9 10 -5 -3 -11 1 -14 9 -4 9 -1 12 9
8 11 -4 15 0 12 12 -2 10 2 20 8 22 8 2 11 -10 9 -34 -2 -31 1 -39 16 -39 10
0 15 4 13 8 -3 4 6 12 19 17 14 6 28 14 31 20 4 6 14 8 24 5 14 -5 14 -4 3 4
-15 11 -41 5 -41 -9 0 -5 -11 -8 -25 -7 -14 1 -24 7 -22 13 2 5 11 9 20 7 18
-3 31 13 22 28 -5 8 -12 7 -23 -2 -13 -11 -15 -10 -9 4 5 13 -2 22 -26 34
l-32 16 23 -21 c25 -24 29 -43 8 -35 -8 3 -17 1 -20 -5 -4 -6 -13 -8 -20 -5
-8 3 -17 0 -21 -6 -6 -9 -10 -9 -16 1 -14 22 -11 26 21 24 16 -1 35 2 42 8 10
6 9 7 -4 4 -24 -8 -33 24 -12 40 10 7 13 13 7 13 -5 0 -18 -9 -28 -20 -13 -14
-22 -17 -35 -10 -10 5 -20 6 -24 3 -3 -3 -6 1 -6 10 0 19 15 23 25 7 10 -16
25 -12 25 8 0 13 -2 14 -9 4 -6 -10 -15 -5 -36 20 -16 18 -32 32 -37 31 -12
-4 -10 14 2 20 6 3 5 4 -2 3 -15 -3 -18 -25 -3 -28 12 -1 34 -29 35 -42 0 -5
-8 -2 -17 6 -10 9 -23 14 -29 11 -6 -2 -11 2 -12 9 0 7 -4 24 -8 37 -5 16 -4
22 4 17 6 -3 13 -3 16 2 3 5 -2 9 -10 9 -9 0 -18 -6 -21 -14z m14 -58 c0 -8
-7 -15 -15 -15 -12 0 -12 3 -2 15 7 8 13 15 15 15 1 0 2 -7 2 -15z m-828 -39
c7 -8 8 -17 3 -20 -6 -3 -12 3 -15 14 -6 24 -4 25 12 6z m56 -13 c-2 -10 -4
-21 -4 -25 -1 -5 -6 -8 -12 -8 -8 0 -8 5 1 15 17 21 1 19 -24 -2 -15 -13 -14
-10 3 10 28 31 41 35 36 10z m-525 -24 c0 -5 -4 -9 -8 -9 -5 0 -9 7 -9 15 0 8
4 12 9 9 4 -3 8 -9 8 -15z m854 5 c3 -8 2 -12 -4 -9 -6 3 -10 10 -10 16 0 14
7 11 14 -7z m565 4 c9 3 11 0 7 -7 -4 -6 -15 -10 -24 -9 -12 2 -16 -3 -15 -19
2 -13 -2 -23 -9 -23 -6 0 -8 3 -5 7 4 3 -1 12 -11 20 -13 10 -14 13 -2 11 9
-2 14 4 14 14 -1 13 2 15 15 9 9 -5 22 -6 30 -3z m-979 -8 c0 -5 -4 -10 -10
-10 -5 0 -10 5 -10 10 0 6 5 10 10 10 6 0 10 -4 10 -10z m24 -16 c3 -8 2 -12
-4 -9 -6 3 -10 1 -10 -6 0 -7 -2 -10 -5 -7 -5 5 4 38 10 38 2 0 6 -7 9 -16z
m156 -4 c0 -5 -2 -10 -4 -10 -3 0 -8 5 -11 10 -3 6 -1 10 4 10 6 0 11 -4 11
-10z m-113 -6 c-3 -3 -12 -4 -19 -1 -8 3 -5 6 6 6 11 1 17 -2 13 -5z m1023 -4
c0 -5 -5 -10 -11 -10 -5 0 -7 5 -4 10 3 6 8 10 11 10 2 0 4 -4 4 -10z m-1295
-20 c-3 -5 -12 -10 -18 -10 -7 0 -6 4 3 10 19 12 23 12 15 0z m1210 0 c3 -6
-1 -7 -9 -4 -18 7 -21 14 -7 14 6 0 13 -4 16 -10z m-956 -14 c9 -11 9 -16 -1
-22 -7 -4 -10 -4 -6 1 4 4 3 14 -3 22 -6 7 -9 13 -6 13 2 0 10 -6 16 -14z
m-29 -10 c0 -2 -7 -7 -16 -10 -8 -3 -12 -2 -9 4 6 10 25 14 25 6z m1044 -8
c-3 -4 -9 -8 -15 -8 -5 0 -9 4 -9 8 0 5 7 9 15 9 8 0 12 -4 9 -9z m-1546 -24
c18 -3 22 -8 27 -32 3 -15 0 -19 -11 -15 -8 3 -13 12 -10 20 4 9 2 11 -6 7 -7
-5 -8 -3 -3 7 8 12 6 12 -8 0 -12 -9 -17 -10 -17 -2 0 7 -4 9 -10 6 -6 -3 -7
1 -4 9 3 9 11 13 18 9 6 -4 17 -8 24 -9z m326 -5 c-4 -8 1 -9 16 -4 19 6 22 4
16 -11 -6 -18 -5 -18 9 0 8 11 15 14 15 8 0 -7 5 -12 11 -12 5 0 7 6 3 13 -4
6 -3 9 1 4 14 -12 13 -48 -2 -54 -7 -3 -10 -9 -7 -14 3 -5 -2 -6 -10 -3 -14 5
-14 8 -1 21 8 8 15 17 15 21 0 3 -5 1 -11 -5 -9 -9 -19 -6 -40 9 -24 18 -31
38 -13 38 3 0 2 -5 -2 -11z m1053 5 c-3 -3 -12 -4 -19 -1 -8 3 -5 6 6 6 11 1
17 -2 13 -5z m-32 -14 c3 -6 -1 -7 -9 -4 -18 7 -21 14 -7 14 6 0 13 -4 16 -10z
m75 6 c0 -2 -7 -7 -16 -10 -8 -3 -12 -2 -9 4 6 10 25 14 25 6z m-1430 -28 c0
-15 -18 -17 -30 -3 -9 11 -8 14 9 12 12 -1 21 -5 21 -9z m105 2 c3 -5 1 -10
-4 -10 -6 0 -11 5 -11 10 0 6 2 10 4 10 3 0 8 -4 11 -10z m237 -14 c4 3 9 1
12 -4 3 -6 -1 -9 -10 -8 -9 1 -21 11 -26 22 -9 18 -8 18 5 2 8 -10 16 -15 19
-12z m1321 -6 c-3 -12 -8 -19 -11 -16 -5 6 5 36 12 36 2 0 2 -9 -1 -20z m77
12 c0 -5 -7 -9 -15 -9 -8 0 -12 4 -9 9 3 4 9 8 15 8 5 0 9 -4 9 -8z m-1626
-30 c2 -4 -5 -9 -17 -9 -17 -2 -19 0 -7 7 18 12 18 12 24 2z m1426 -2 c0 -5
-5 -10 -11 -10 -5 0 -7 5 -4 10 3 6 8 10 11 10 2 0 4 -4 4 -10z m-1412 -84
c-1 -1 -12 -8 -23 -16 -18 -14 -19 -14 -7 2 9 11 10 18 2 23 -5 3 -10 1 -10
-6 0 -7 -3 -10 -6 -6 -14 14 7 27 27 16 12 -6 19 -12 17 -13z m-8 -36 c-11 -7
-12 -10 -2 -10 19 0 9 -23 -11 -26 -11 -1 -14 2 -10 9 4 7 8 15 9 20 1 4 2 9
3 12 0 3 7 5 14 5 8 0 7 -4 -3 -10z m43 -24 c4 -10 1 -13 -8 -9 -8 3 -12 9 -9
14 7 12 11 11 17 -5z m17 -29 c9 3 7 -1 -5 -10 -22 -17 -42 -13 -42 8 0 9 5
11 16 6 9 -5 23 -6 31 -4z m2008 -72 c-3 -3 -9 2 -12 12 -6 14 -5 15 5 6 7 -7
10 -15 7 -18z m22 -57 c0 -4 6 -5 14 -2 21 8 30 -15 13 -34 -8 -9 -12 -22 -10
-29 2 -6 0 -14 -5 -17 -5 -3 -10 6 -11 19 -3 48 -4 55 -13 55 -5 0 -7 4 -4 9
3 5 -1 12 -10 15 -8 3 -12 11 -8 17 5 9 11 6 21 -6 7 -11 13 -22 13 -27z
m-1941 6 c-14 -13 -16 -13 -16 0 0 8 4 13 9 10 4 -3 8 0 8 7 0 7 3 9 7 5 4 -3
0 -13 -8 -22z m41 -44 c0 -5 -4 -10 -10 -10 -5 0 -10 5 -10 10 0 6 5 10 10 10
6 0 10 -4 10 -10z m1892 -31 c-10 -39 -11 -53 -2 -69 6 -12 5 -23 -6 -36 -9
-11 -13 -13 -9 -6 3 6 1 12 -4 12 -6 0 -11 5 -11 11 0 6 8 8 18 5 16 -6 16 -5
0 7 -10 8 -14 18 -10 22 4 5 1 5 -6 1 -7 -4 -10 -12 -7 -17 4 -5 1 -9 -4 -9
-6 0 -10 -3 -8 -7 1 -5 -8 -18 -20 -30 -13 -13 -23 -18 -23 -12 0 8 -5 8 -15
-1 -10 -9 -15 -9 -15 -1 0 6 5 11 11 11 5 0 8 4 4 9 -3 5 -1 12 5 16 6 4 8 11
5 16 -3 5 1 6 9 3 9 -3 16 -10 16 -15 0 -5 4 -9 8 -9 17 0 8 30 -10 36 -10 3
-18 9 -18 14 0 13 29 20 36 8 4 -7 3 -8 -4 -4 -7 4 -12 2 -12 -3 0 -12 23 -15
33 -4 4 3 2 12 -5 20 -6 8 -7 13 -2 12 23 -4 33 3 29 22 -3 13 0 19 8 16 7 -3
10 -11 9 -18z m-119 -96 c-3 -7 -6 -13 -8 -13 -2 0 -5 6 -8 13 -3 8 1 14 8 14
7 0 11 -6 8 -14z m17 -48 c12 1 25 7 30 14 4 8 13 10 19 7 6 -4 9 -12 5 -17
-3 -5 -9 -7 -14 -4 -5 3 -12 -4 -15 -16 -6 -17 -9 -18 -16 -8 -4 7 -11 10 -16
6 -10 -10 18 -28 31 -20 5 4 7 -1 3 -10 -3 -9 -1 -19 5 -23 6 -4 8 -3 4 4 -3
6 -3 13 2 16 4 2 9 -4 9 -15 1 -15 -3 -19 -16 -14 -28 9 -47 -22 -55 -89 -1
-11 -9 -22 -17 -24 -11 -3 -11 -1 1 7 12 8 12 11 1 11 -9 0 -10 4 -4 13 6 6 9
33 8 59 -1 32 3 49 12 52 11 4 11 1 3 -17 -11 -21 -11 -21 4 -3 11 13 16 15
16 6 0 -7 3 -10 6 -7 11 11 -18 38 -33 33 -8 -3 -12 -2 -8 3 3 5 2 11 -2 14
-5 2 -3 2 4 1 7 -2 10 3 6 11 -3 8 -8 13 -12 11 -3 -2 -7 8 -8 22 l-1 27 13
-26 c9 -17 22 -25 35 -24z m55 -25 c3 -5 -1 -10 -9 -10 -9 0 -16 5 -16 10 0 6
4 10 9 10 6 0 13 -4 16 -10z m-1810 -78 c-3 -3 -11 0 -18 7 -9 10 -8 11 6 5
10 -3 15 -9 12 -12z m-115 -122 c0 -5 -4 -10 -10 -10 -5 0 -10 5 -10 10 0 6 5
10 10 10 6 0 10 -4 10 -10z m0 -30 c0 -5 -2 -10 -4 -10 -3 0 -8 5 -11 10 -3 6
-1 10 4 10 6 0 11 -4 11 -10z m-70 -85 c-7 -9 -15 -13 -17 -11 -7 7 7 26 19
26 6 0 6 -6 -2 -15z m74 -4 c-8 -8 -43 -8 -38 0 2 4 13 7 24 6 10 -1 17 -3 14
-6z m-14 -76 c-7 -8 -17 -15 -23 -15 -6 0 -3 6 8 13 11 9 15 19 10 28 -6 11
-5 12 5 2 11 -10 11 -15 0 -28z m-39 2 c-10 -9 -11 -8 -5 6 3 10 9 15 12 12 3
-3 0 -11 -7 -18z m1881 -50 c-7 -8 -7 -18 -2 -27 5 -8 6 -18 4 -22 -11 -17 8
-29 24 -16 15 11 15 11 6 -2 -6 -8 -10 -22 -9 -31 2 -9 -3 -16 -11 -16 -7 0
-11 4 -8 9 3 4 0 8 -6 8 -7 0 -10 6 -7 14 3 7 -2 24 -10 37 -9 12 -11 19 -4
15 8 -5 12 -3 10 5 -3 26 1 39 12 39 8 0 8 -4 1 -13z m-1835 -22 c0 -8 -4 -12
-9 -9 -5 3 -6 10 -3 15 9 13 12 11 12 -6z m1813 -55 c0 -5 -2 -10 -4 -10 -3 0
-8 5 -11 10 -3 6 -1 10 4 10 6 0 11 -4 11 -10z m30 -125 c0 -8 -3 -16 -7 -18
-5 -3 -8 5 -8 18 0 13 3 21 8 18 4 -2 7 -10 7 -18z m-24 -160 c1 -6 -7 -12
-18 -12 -20 -2 -20 -1 -2 13 14 10 15 13 3 8 -10 -3 -19 1 -23 11 -3 9 -2 13
4 10 6 -3 10 0 10 7 1 13 23 -19 26 -37z m-26 -36 c0 -14 -17 -10 -23 5 -4 10
-1 13 9 9 7 -3 14 -9 14 -14z m30 2 c0 -5 -7 -16 -15 -24 -8 -8 -11 -18 -7
-21 3 -4 -2 -4 -11 0 -17 6 -16 8 3 21 11 8 18 19 15 24 -4 5 -1 9 4 9 6 0 11
-4 11 -9z m15 -31 c3 -5 1 -10 -4 -10 -6 0 -11 5 -11 10 0 6 2 10 4 10 3 0 8
-4 11 -10z m-1875 -270 c0 8 3 11 6 7 3 -3 2 -12 -3 -21 -7 -13 -11 -12 -22 7
-13 20 -13 21 2 8 14 -11 17 -11 17 -1z m40 -18 c0 -5 -7 -9 -15 -9 -8 0 -12
4 -9 9 3 4 9 8 15 8 5 0 9 -4 9 -8z m1888 -27 c11 2 25 -2 31 -9 7 -8 5 -12
-10 -13 -10 -1 -19 4 -19 10 0 7 -4 6 -10 -3 -9 -13 -12 -13 -21 3 -6 9 -15
14 -21 11 -7 -4 -8 -2 -4 5 6 8 12 9 20 2 7 -6 22 -9 34 -6z m-1968 -15 c0 -5
-5 -10 -11 -10 -5 0 -7 5 -4 10 3 6 8 10 11 10 2 0 4 -4 4 -10z m1998 -65 c-3
-3 -9 2 -12 12 -6 14 -5 15 5 6 7 -7 10 -15 7 -18z m-1914 -13 c2 -4 -4 -8
-14 -8 -10 0 -16 4 -14 8 3 4 9 8 14 8 5 0 11 -4 14 -8z m1935 -118 c5 4 12 3
15 -2 10 -16 -33 -10 -46 6 -12 15 -11 16 4 4 9 -8 22 -11 27 -8z m-1939 -68
c0 -2 -8 -10 -17 -17 -16 -13 -17 -12 -4 4 13 16 21 21 21 13z m1919 -40 c-6
-6 -14 -5 -21 3 -11 10 -10 11 4 6 13 -5 16 -2 12 17 -4 21 -4 21 5 3 5 -12 5
-24 0 -29z m-3 -64 c-4 -3 -14 2 -24 12 -16 18 -16 18 6 6 13 -6 21 -14 18
-18z m40 -26 c1 -9 -5 -21 -14 -28 -15 -11 -15 -11 -4 4 11 14 10 18 -5 27
-11 6 -13 11 -5 11 8 0 10 5 6 13 -5 9 -4 9 6 0 8 -7 15 -19 16 -27z m-1960
-158 c4 -6 3 -8 -4 -4 -5 3 -12 0 -15 -6 -2 -7 -8 -9 -13 -5 -5 4 -2 12 6 17
19 12 17 12 26 -2z m1970 -11 c1 -9 -2 -15 -7 -11 -5 3 -7 9 -4 14 3 5 -3 11
-12 14 -15 4 -15 5 1 3 11 -1 20 -10 22 -20z m-1999 -36 c10 -16 8 -18 -14
-15 -32 3 -41 13 -23 24 21 13 24 13 37 -9z m110 -71 c1 -11 -2 -20 -7 -20 -6
0 -7 17 -1 38 3 8 7 -1 8 -18z m83 -210 c0 -5 -7 -7 -15 -4 -11 5 -13 2 -9
-10 3 -9 11 -13 18 -9 6 4 5 0 -2 -9 -11 -14 -10 -18 5 -27 17 -10 17 -10 -2
-11 -11 0 -15 -4 -10 -8 6 -4 11 -15 13 -24 2 -13 -2 -16 -14 -11 -12 4 -15 3
-10 -5 5 -8 1 -10 -10 -5 -14 5 -15 8 -3 17 17 14 24 60 7 50 -6 -4 -8 -3 -4
4 3 6 2 13 -4 17 -14 9 6 45 25 45 8 0 15 -4 15 -10z m33 -167 c-3 -7 -6 -13
-8 -13 -2 0 -5 6 -8 13 -3 8 1 14 8 14 7 0 11 -6 8 -14z m1670 -28 c-3 -9 -8
-14 -10 -11 -3 3 -2 9 2 15 9 16 15 13 8 -4z m-1663 -9 c-7 -7 -13 -7 -20 0
-6 6 -3 10 10 10 13 0 16 -4 10 -10z m-50 -31 c13 -14 21 -25 18 -25 -2 0 -15
11 -28 25 -13 14 -21 25 -18 25 2 0 15 -11 28 -25z m1699 4 c-15 -9 -32 -2
-24 11 3 5 13 6 21 3 12 -4 13 -8 3 -14z m11 -13 c0 -2 -6 -9 -14 -15 -11 -9
-16 -9 -22 0 -4 7 -3 9 4 5 6 -3 13 -2 17 4 6 10 15 14 15 6z m-1680 -30 c0
-3 -4 -8 -10 -11 -5 -3 -10 -1 -10 4 0 6 5 11 10 11 6 0 10 -2 10 -4z m1716
-22 c-23 -17 -33 -18 -41 -4 -4 6 1 7 11 3 10 -4 15 -2 11 3 -3 6 4 11 16 11
21 2 22 1 3 -13z m-1653 -70 c-4 -12 -8 -13 -14 -3 -9 15 -2 32 11 24 5 -3 6
-13 3 -21z m67 -148 c0 -2 -8 -10 -17 -17 -16 -13 -17 -12 -4 4 13 16 21 21
21 13z m-8 -83 c-6 -2 -10 -9 -7 -13 3 -5 0 -12 -6 -16 -8 -4 -9 -3 -5 4 4 7
1 12 -6 12 -9 0 -9 3 2 10 8 5 20 9 25 9 6 0 4 -3 -3 -6z m28 -39 c0 -8 -19
-13 -24 -6 -3 5 1 9 9 9 8 0 15 -2 15 -3z m-10 -68 c0 -3 -4 -8 -10 -11 -5 -3
-10 -1 -10 4 0 6 5 11 10 11 6 0 10 -2 10 -4z m1753 -26 c3 -11 1 -18 -4 -14
-5 3 -9 12 -9 20 0 20 7 17 13 -6z m-1713 -44 c0 -2 -7 -7 -16 -10 -8 -3 -12
-2 -9 4 6 10 25 14 25 6z m1845 -146 c3 -5 -1 -10 -9 -10 -9 0 -16 5 -16 10 0
6 4 10 9 10 6 0 13 -4 16 -10z m168 -200 c-3 -11 -7 -20 -9 -20 -2 0 -4 9 -4
20 0 11 4 20 9 20 5 0 7 -9 4 -20z m-1843 -54 c0 -12 -5 -7 -19 24 -11 24 -11
24 3 6 9 -11 16 -24 16 -30z m15 -86 c-3 -5 -1 -10 4 -10 6 0 11 -5 11 -11 0
-8 -5 -8 -15 1 -13 11 -12 30 1 30 3 0 2 -4 -1 -10z m2048 -52 c7 -26 -10 -22
-18 5 -3 12 -9 17 -11 10 -4 -8 -10 -7 -23 5 -24 23 -3 35 25 14 12 -10 25
-25 27 -34z m-2046 4 c7 -13 8 -23 1 -33 -8 -12 -9 -12 -5 1 2 8 -2 23 -11 33
-8 9 -11 17 -6 17 5 0 14 -8 21 -18z m42 -5 c0 -9 -2 -8 -6 1 -2 6 -10 9 -15
6 -7 -4 -8 -2 -4 5 9 13 26 5 25 -12z m-3 -29 c4 -7 3 -8 -4 -4 -7 4 -12 2
-12 -5 0 -7 -3 -10 -6 -6 -6 5 3 27 11 27 2 0 7 -5 11 -12z m-6 -38 c0 -5 -2
-10 -4 -10 -3 0 -8 5 -11 10 -3 6 -1 10 4 10 6 0 11 -4 11 -10z m2139 -59 c-1
-14 -2 -14 -6 1 -2 9 -10 16 -16 14 -7 -1 -9 -1 -4 1 4 3 4 10 0 16 -4 7 1 6
10 -2 9 -7 16 -21 16 -30z m111 -70 c0 -6 -4 -12 -8 -15 -5 -3 -9 1 -9 9 0 8
4 15 9 15 4 0 8 -4 8 -9z m-2513 -23 c-5 -30 -20 -33 -43 -7 -17 20 -17 22 -2
16 10 -3 20 -2 23 3 11 18 25 10 22 -12z"/>
<path d="M3556 3941 c-4 -5 -2 -12 3 -15 5 -4 12 -2 15 3 4 5 2 12 -3 15 -5 4
-12 2 -15 -3z"/>
<path d="M3446 3791 c-4 -5 -2 -12 3 -15 5 -4 12 -2 15 3 4 5 2 12 -3 15 -5 4
-12 2 -15 -3z"/>
<path d="M3420 3655 c-7 -9 -11 -17 -9 -20 3 -2 10 5 17 15 14 24 10 26 -8 5z"/>
<path d="M1867 113 c-10 -9 -9 -23 1 -23 5 0 9 7 9 15 0 17 -1 18 -10 8z"/>
<path d="M2523 4569 c3 -9 -3 -29 -12 -46 -17 -27 -17 -30 0 -61 10 -19 20
-29 24 -22 3 5 11 8 16 4 5 -3 8 0 7 7 -2 8 7 13 21 14 23 0 44 25 22 25 -18
0 -13 38 7 49 9 6 12 11 5 11 -6 0 -15 -4 -18 -10 -3 -5 -11 -10 -17 -10 -6 0
-6 6 2 15 15 18 11 24 -20 30 -19 4 -20 2 -9 -11 19 -23 19 -42 2 -48 -11 -5
-13 -2 -9 10 3 8 -1 25 -10 37 -10 13 -14 15 -11 6z m13 -35 c-10 -25 3 -35
27 -23 12 7 19 8 14 4 -4 -5 0 -16 9 -26 14 -16 14 -17 -3 -14 -10 1 -25 -4
-34 -11 -14 -13 -18 -12 -30 3 -9 11 -10 14 -1 9 6 -4 12 -2 12 3 0 6 -7 11
-15 11 -12 0 -11 5 3 30 18 32 28 40 18 14z"/>
<path d="M2529 4498 c7 -9 10 -23 6 -30 -4 -7 0 -5 9 6 8 10 20 15 27 10 8 -5
10 -3 5 5 -5 7 -14 10 -21 7 -7 -2 -19 1 -26 7 -11 10 -11 9 0 -5z"/>
<path d="M2373 4555 c0 -7 6 -11 14 -8 7 3 13 6 13 8 0 2 -6 5 -13 8 -8 3 -14
-1 -14 -8z"/>
<path d="M2760 4550 c-6 -11 -9 -20 -8 -20 2 0 11 9 21 20 9 11 13 20 7 20 -5
0 -14 -9 -20 -20z"/>
<path d="M2433 4554 c13 -24 -35 -36 -83 -22 -8 3 -12 3 -7 1 16 -10 6 -24
-13 -18 -13 4 -20 2 -20 -7 0 -7 -10 -2 -21 12 -11 14 -18 19 -14 13 3 -7 3
-19 -1 -25 -5 -7 -9 -20 -9 -30 -1 -13 2 -15 17 -7 10 5 18 7 18 3 0 -3 6 -1
13 5 8 6 17 8 20 4 9 -8 38 17 31 28 -3 5 2 6 10 3 9 -3 13 -10 10 -15 -3 -5
2 -6 10 -3 10 4 18 -1 22 -10 5 -12 10 -14 19 -6 9 7 16 6 25 -5 13 -15 30
-12 30 7 0 5 -7 8 -15 4 -8 -3 -14 -2 -12 2 1 4 -2 8 -7 9 -16 3 -25 27 -13
35 9 5 8 10 -2 20 -8 7 -11 8 -8 2z m1 -51 c7 -17 -4 -16 -28 2 -18 13 -18 14
3 12 11 -1 23 -7 25 -14z m-115 0 c14 10 14 10 3 -5 -11 -13 -23 -16 -50 -9
-2 1 0 6 4 12 4 8 9 8 17 0 7 -7 15 -7 26 2z"/>
<path d="M2500 4551 c0 -7 -5 -9 -12 -5 -7 5 -8 3 -3 -5 5 -9 10 -10 18 -2 6
6 8 14 4 18 -4 3 -7 1 -7 -6z"/>
<path d="M1352 4541 c-11 -7 -11 -9 0 -14 9 -3 15 1 15 9 0 8 -1 14 -1 14 -1
0 -7 -4 -14 -9z"/>
<path d="M2295 4540 c3 -5 8 -10 11 -10 2 0 4 5 4 10 0 6 -5 10 -11 10 -5 0
-7 -4 -4 -10z"/>
<path d="M2846 4542 c-3 -5 1 -9 9 -9 8 0 12 4 9 9 -3 4 -7 8 -9 8 -2 0 -6 -4
-9 -8z"/>
<path d="M1310 4520 c-13 -8 -12 -10 3 -10 9 0 17 5 17 10 0 12 -1 12 -20 0z"/>
<path d="M1812 4520 c2 -7 -5 -14 -15 -15 -27 -5 -31 -13 -17 -30 10 -12 16
-13 27 -4 7 7 11 14 8 17 -3 3 0 11 6 18 7 8 7 14 -1 19 -6 4 -9 1 -8 -5z m-8
-41 c-3 -5 -10 -7 -15 -3 -5 3 -7 10 -3 15 3 5 10 7 15 3 5 -3 7 -10 3 -15z"/>
<path d="M2467 4514 c3 -7 9 -14 14 -14 14 0 10 17 -5 23 -10 4 -13 1 -9 -9z"/>
<path d="M2605 4520 c-3 -6 1 -7 9 -4 18 7 21 14 7 14 -6 0 -13 -4 -16 -10z"/>
<path d="M2770 4518 c0 -11 12 -10 30 2 12 7 10 9 -8 7 -12 0 -22 -5 -22 -9z"/>
<path d="M2920 4526 c0 -2 8 -10 18 -17 15 -13 16 -12 3 4 -13 16 -21 21 -21
13z"/>
<path d="M2196 4505 c-3 -9 -12 -15 -20 -13 -8 2 -15 -1 -16 -6 0 -6 6 -11 15
-12 8 -1 15 2 15 7 0 6 4 8 8 5 4 -2 9 4 9 15 2 23 -3 25 -11 4z"/>
<path d="M1455 4501 c-3 -5 -2 -12 3 -15 5 -3 9 1 9 9 0 17 -3 19 -12 6z"/>
<path d="M1704 4487 c0 -15 2 -16 11 -4 7 10 16 12 26 6 10 -5 16 -4 16 4 0 7
-12 12 -27 12 -18 1 -26 -4 -26 -18z"/>
<path d="M2029 4508 c-10 -35 5 -65 17 -33 6 13 8 14 15 3 7 -10 9 -10 9 2 0
13 1 13 10 0 7 -12 9 -10 7 7 -1 16 -5 19 -13 12 -8 -7 -14 -6 -19 1 -5 9 -24
14 -26 8z"/>
<path d="M2100 4504 c0 -6 6 -16 13 -22 10 -8 16 -6 25 9 7 10 8 19 3 19 -5 0
-12 -6 -14 -12 -4 -10 -8 -9 -16 2 -6 8 -11 10 -11 4z"/>
<path d="M2810 4499 c0 -5 5 -7 10 -4 6 3 10 8 10 11 0 2 -4 4 -10 4 -5 0 -10
-5 -10 -11z"/>
<path d="M2895 4489 c-4 -12 -3 -25 2 -29 4 -5 8 4 9 21 1 34 -2 37 -11 8z"/>
<path d="M2653 4479 c14 -23 14 -28 0 -41 -12 -12 -12 -17 -2 -23 8 -6 10 -4
4 5 -5 8 -4 11 3 6 6 -4 9 -13 6 -20 -7 -19 16 -32 27 -15 6 10 2 20 -12 32
l-21 17 22 -2 c17 -2 23 2 25 20 1 13 -3 26 -8 29 -6 3 -7 1 -3 -5 14 -23 -18
-24 -37 -1 l-19 24 15 -26z"/>
<path d="M1653 4476 c-3 -6 -3 -8 2 -4 4 4 13 3 20 -2 8 -7 12 -5 12 3 0 16
-25 18 -34 3z"/>
<path d="M2915 4481 c-3 -5 -2 -12 3 -15 5 -3 9 1 9 9 0 17 -3 19 -12 6z"/>
<path d="M2976 4478 c3 -5 10 -6 15 -3 13 9 11 12 -6 12 -8 0 -12 -4 -9 -9z"/>
<path d="M1724 4465 c-4 -8 -11 -12 -17 -8 -5 3 -7 1 -3 -5 7 -12 -4 -21 -34
-27 -18 -3 -25 6 -21 28 1 5 -3 6 -9 2 -7 -4 -4 -18 9 -38 19 -30 24 -32 77
-32 51 0 57 2 60 22 2 14 -4 28 -17 36 -15 11 -17 16 -7 20 11 4 11 6 0 6 -8
1 -16 -8 -19 -19 -3 -11 -9 -17 -14 -14 -5 3 -5 14 1 25 6 10 8 19 5 19 -3 0
-8 -7 -11 -15z m21 -35 c3 5 12 10 18 10 7 0 6 -4 -3 -10 -13 -8 -8 -14 11
-12 3 1 6 -5 6 -12 0 -6 -11 -12 -23 -12 -12 0 -21 3 -18 7 2 4 -3 9 -11 13
-8 3 -19 -3 -24 -12 -8 -14 -10 -14 -11 -2 0 12 -2 12 -9 2 -7 -11 -9 -11 -14
1 -4 11 0 15 13 12 10 -2 21 3 24 12 5 12 9 13 20 4 10 -8 16 -9 21 -1z"/>
<path d="M1610 4459 c0 -5 5 -7 10 -4 6 3 10 8 10 11 0 2 -4 4 -10 4 -5 0 -10
-5 -10 -11z"/>
<path d="M1505 4440 c-3 -6 1 -7 9 -4 18 7 21 14 7 14 -6 0 -13 -4 -16 -10z"/>
<path d="M1668 4443 c7 -3 16 -2 19 1 4 3 -2 6 -13 5 -11 0 -14 -3 -6 -6z"/>
<path d="M1341 4416 c-9 -10 -9 -20 0 -40 7 -14 16 -27 21 -27 4 -1 14 -2 21
-3 6 -1 11 -9 9 -19 -2 -9 2 -17 7 -17 15 0 23 18 12 25 -6 3 -8 12 -5 19 3 7
-3 19 -12 27 -12 9 -15 10 -10 2 4 -8 2 -13 -4 -13 -6 0 -8 -6 -4 -12 4 -7 3
-10 -1 -5 -8 7 -11 20 -17 65 -2 15 -3 15 -17 -2z m13 -22 c3 -8 2 -12 -4 -9
-6 3 -10 10 -10 16 0 14 7 11 14 -7z"/>
<path d="M2625 4400 c-3 -5 1 -10 9 -10 9 0 16 5 16 10 0 6 -4 10 -9 10 -6 0
-13 -4 -16 -10z"/>
<path d="M3015 4360 c2 -27 10 -33 12 -10 1 11 -2 22 -6 24 -4 3 -7 -4 -6 -14z"/>
<path d="M2932 4356 c-12 -6 -25 -19 -28 -30 -5 -15 -8 -16 -15 -5 -8 12 -11
12 -19 -1 -8 -12 -10 -13 -10 -1 0 8 -3 11 -7 8 -3 -4 -14 0 -24 9 -13 12 -17
12 -15 2 3 -25 18 -39 35 -34 9 4 5 -3 -9 -14 -14 -11 -20 -20 -13 -20 6 0 19
8 29 17 19 19 81 26 100 11 7 -5 14 -2 18 8 7 18 -11 37 -26 28 -4 -3 -8 -1
-8 5 0 5 8 15 18 20 23 14 3 12 -26 -3z m2 -37 c-3 -5 -10 -7 -15 -3 -5 3 -7
10 -3 15 3 5 10 7 15 3 5 -3 7 -10 3 -15z m31 1 c3 -5 1 -10 -4 -10 -6 0 -11
5 -11 10 0 6 2 10 4 10 3 0 8 -4 11 -10z"/>
<path d="M2990 4341 c0 -6 4 -13 10 -16 6 -3 7 1 4 9 -7 18 -14 21 -14 7z"/>
<path d="M3035 4320 c-13 -6 -15 -9 -5 -9 8 0 22 4 30 9 18 12 2 12 -25 0z"/>
<path d="M3100 4280 c0 -5 5 -10 11 -10 5 0 7 5 4 10 -3 6 -8 10 -11 10 -2 0
-4 -4 -4 -10z"/>
<path d="M3300 4245 c0 -8 4 -15 10 -15 5 0 7 7 4 15 -4 8 -8 15 -10 15 -2 0
-4 -7 -4 -15z"/>
<path d="M3330 4245 c0 -8 4 -15 10 -15 5 0 7 7 4 15 -4 8 -8 15 -10 15 -2 0
-4 -7 -4 -15z"/>
<path d="M3356 4247 c3 -10 9 -15 12 -12 3 3 0 11 -7 18 -10 9 -11 8 -5 -6z"/>
<path d="M3270 4220 c0 -5 5 -10 10 -10 6 0 10 5 10 10 0 6 -4 10 -10 10 -5 0
-10 -4 -10 -10z"/>
<path d="M3375 4221 c-3 -5 0 -13 6 -17 7 -4 9 -3 5 4 -3 5 0 13 6 15 9 4 10
6 1 6 -6 1 -14 -3 -18 -8z"/>
<path d="M3415 4220 c-3 -6 1 -7 9 -4 18 7 21 14 7 14 -6 0 -13 -4 -16 -10z"/>
<path d="M3310 4210 c-5 -3 -7 -14 -5 -25 2 -11 4 -24 4 -30 1 -5 6 -3 11 5 7
11 10 11 10 2 0 -7 5 -10 11 -6 8 4 7 9 -2 15 -8 5 -12 9 -9 10 3 0 13 2 22 4
10 2 20 -1 24 -6 3 -5 1 -9 -5 -9 -6 0 -8 -7 -4 -17 5 -14 8 -13 15 6 4 12 12
19 18 16 5 -3 10 -1 10 5 0 7 -7 10 -15 7 -8 -4 -17 -2 -20 4 -4 5 -11 6 -17
3 -7 -5 -9 -2 -6 7 6 15 -23 21 -42 9z m24 -9 c3 -5 -1 -14 -8 -20 -12 -10
-14 -9 -11 6 2 10 4 19 4 21 2 5 10 2 15 -7z"/>
<path d="M3439 4153 c-13 -16 -12 -17 4 -4 16 13 21 21 13 21 -2 0 -10 -8 -17
-17z"/>
<path d="M3390 4156 c0 -2 8 -10 18 -17 15 -13 16 -12 3 4 -13 16 -21 21 -21
13z"/>
<path d="M3346 4141 c-3 -4 0 -16 8 -26 11 -15 13 -16 13 -1 0 9 -4 16 -9 16
-5 0 -6 5 -3 10 3 6 4 10 1 10 -3 0 -7 -4 -10 -9z"/>
<path d="M3380 4119 c0 -5 5 -7 10 -4 6 3 10 8 10 11 0 2 -4 4 -10 4 -5 0 -10
-5 -10 -11z"/>
<path d="M3600 4120 c-9 -6 -10 -10 -3 -10 6 0 15 5 18 10 8 12 4 12 -15 0z"/>
<path d="M3613 3960 c-2 -27 12 -33 28 -12 13 16 13 16 -5 2 -18 -14 -19 -13
-13 2 3 10 3 19 -1 22 -4 3 -8 -4 -9 -14z"/>
<path d="M3640 3925 c-7 -8 -9 -15 -6 -15 4 0 14 7 22 15 9 8 11 15 6 15 -5 0
-15 -7 -22 -15z"/>
<path d="M3656 3887 c3 -10 9 -15 12 -12 3 3 0 11 -7 18 -10 9 -11 8 -5 -6z"/>
<path d="M3629 3863 c-13 -16 -12 -17 4 -4 16 13 21 21 13 21 -2 0 -10 -8 -17
-17z"/>
<path d="M3525 3720 c-3 -6 1 -7 9 -4 18 7 21 14 7 14 -6 0 -13 -4 -16 -10z"/>
<path d="M3510 3691 c0 -6 4 -13 10 -16 6 -3 7 1 4 9 -7 18 -14 21 -14 7z"/>
<path d="M3450 3640 c0 -5 5 -10 11 -10 5 0 7 5 4 10 -3 6 -8 10 -11 10 -2 0
-4 -4 -4 -10z"/>
<path d="M3495 3640 c-3 -6 1 -7 9 -4 18 7 21 14 7 14 -6 0 -13 -4 -16 -10z"/>
<path d="M3468 3613 c7 -3 16 -2 19 1 4 3 -2 6 -13 5 -11 0 -14 -3 -6 -6z"/>
<path d="M3455 3431 c-3 -5 -2 -12 3 -15 5 -3 9 1 9 9 0 17 -3 19 -12 6z"/>
<path d="M1474 3256 c4 -10 1 -26 -6 -35 -11 -14 -10 -14 6 0 15 14 16 20 6
35 -11 18 -11 18 -6 0z"/>
<path d="M3428 3263 c7 -3 16 -2 19 1 4 3 -2 6 -13 5 -11 0 -14 -3 -6 -6z"/>
<path d="M3433 3135 c0 -8 4 -12 9 -9 4 3 8 9 8 15 0 5 -4 9 -8 9 -5 0 -9 -7
-9 -15z"/>
<path d="M1513 3116 c0 -7 9 -19 19 -25 18 -11 18 -11 2 14 -19 29 -21 30 -21
11z"/>
<path d="M3480 3120 c-9 -6 -10 -10 -3 -10 6 0 15 5 18 10 8 12 4 12 -15 0z"/>
<path d="M1478 3103 c7 -3 16 -2 19 1 4 3 -2 6 -13 5 -11 0 -14 -3 -6 -6z"/>
<path d="M1457 3079 c4 -13 8 -18 11 -10 2 7 -1 18 -6 23 -8 8 -9 4 -5 -13z"/>
<path d="M3470 3096 c0 -2 8 -10 18 -17 15 -13 16 -12 3 4 -13 16 -21 21 -21
13z"/>
<path d="M1490 3075 c0 -8 2 -15 4 -15 2 0 6 7 10 15 3 8 1 15 -4 15 -6 0 -10
-7 -10 -15z"/>
<path d="M1514 3069 c-3 -6 0 -15 7 -20 11 -7 10 -11 -6 -24 -20 -16 -20 -16
2 -6 30 15 38 14 22 -5 -10 -13 -10 -17 2 -25 14 -9 8 -12 -26 -11 -17 1 -17
0 -2 -4 9 -3 17 -10 17 -15 0 -6 -5 -7 -12 -3 -7 4 -8 3 -4 -5 4 -6 12 -9 17
-6 14 10 10 -11 -5 -24 -8 -7 -13 -17 -12 -24 4 -22 27 -59 34 -53 12 13 10
37 -4 43 -12 4 -12 8 1 26 11 15 12 24 3 34 -7 9 -7 17 2 28 7 8 9 15 5 15 -4
0 -2 6 4 14 9 10 9 16 1 21 -8 5 -8 10 0 20 8 10 8 15 -1 20 -6 4 -15 1 -20
-6 -8 -13 -13 -6 -10 14 2 11 -7 9 -15 -4z"/>
<path d="M3405 3031 c-3 -6 3 -15 14 -20 14 -8 22 -7 32 6 8 10 9 14 2 10 -6
-4 -14 -3 -18 3 -8 13 -22 13 -30 1z"/>
<path d="M3420 2966 c0 -2 7 -9 15 -16 13 -11 14 -10 9 4 -5 14 -24 23 -24 12z"/>
<path d="M1475 2920 c-3 -5 -1 -10 4 -10 6 0 11 5 11 10 0 6 -2 10 -4 10 -3 0
-8 -4 -11 -10z"/>
<path d="M3455 2751 c-9 -15 15 -25 28 -12 9 9 7 10 -7 5 -13 -5 -17 -4 -12 4
4 7 5 12 2 12 -3 0 -7 -4 -11 -9z"/>
<path d="M1532 2733 c-10 -4 -10 -8 -1 -19 10 -12 9 -13 -5 -8 -9 3 -16 1 -16
-6 0 -6 5 -8 10 -5 6 3 10 2 10 -4 0 -5 -4 -13 -10 -16 -5 -3 -10 -12 -10 -18
0 -7 5 -4 11 6 6 9 15 15 21 11 7 -4 7 -9 -1 -13 -6 -4 -13 -17 -16 -29 -3
-19 -1 -21 15 -12 18 10 22 31 9 55 -3 6 -5 22 -4 38 0 15 1 27 0 26 0 0 -6
-3 -13 -6z"/>
<path d="M3477 2716 c-23 -18 -30 -53 -11 -60 12 -4 13 -2 5 12 -7 13 -4 23
11 40 24 25 22 28 -5 8z"/>
<path d="M3492 2698 c-7 -7 -12 -17 -12 -22 0 -6 5 -3 11 7 6 9 15 14 21 11 7
-4 8 -2 4 4 -9 15 -9 15 -24 0z"/>
<path d="M1466 2682 c-3 -4 4 -9 15 -9 23 -2 25 3 4 10 -8 4 -16 3 -19 -1z"/>
<path d="M3501 2677 c2 -1 12 -9 22 -16 15 -12 17 -12 11 3 -3 9 -13 16 -22
16 -8 0 -13 -1 -11 -3z"/>
<path d="M1479 2648 c-6 -21 -5 -39 1 -43 5 -3 7 4 5 16 -3 15 0 19 11 15 9
-3 12 -1 9 4 -5 9 -24 14 -26 8z"/>
<path d="M3479 2573 c-13 -16 -12 -17 4 -4 16 13 21 21 13 21 -2 0 -10 -8 -17
-17z"/>
<path d="M1435 2561 c-6 -11 13 -26 22 -17 4 3 1 6 -6 6 -7 0 -9 5 -6 10 3 6
4 10 1 10 -3 0 -7 -4 -11 -9z"/>
<path d="M1435 2500 c-3 -5 -1 -10 4 -10 6 0 11 5 11 10 0 6 -2 10 -4 10 -3 0
-8 -4 -11 -10z"/>
<path d="M1470 2381 c0 -7 -4 -9 -10 -6 -5 3 -10 4 -10 1 0 -3 9 -10 19 -16
24 -12 36 3 16 20 -11 9 -15 9 -15 1z"/>
<path d="M1456 2338 c-6 -20 -4 -48 4 -48 4 0 7 13 6 30 -1 32 -4 38 -10 18z"/>
<path d="M1476 2317 c3 -10 9 -15 12 -12 3 3 0 11 -7 18 -10 9 -11 8 -5 -6z"/>
<path d="M1510 2241 c0 -7 -4 -9 -10 -6 -5 3 -10 1 -10 -4 0 -6 4 -11 9 -11
13 0 25 20 17 27 -3 4 -6 1 -6 -6z"/>
<path d="M3520 2216 c-9 -11 -9 -19 0 -33 11 -17 11 -17 6 1 -4 10 -1 25 5 32
6 8 9 14 6 14 -2 0 -10 -7 -17 -14z"/>
<path d="M1478 2209 c12 -16 7 -29 -10 -29 -5 0 -7 4 -3 9 3 5 1 12 -4 15 -5
4 -8 -1 -7 -9 3 -23 14 -29 30 -16 16 14 56 -1 56 -20 0 -6 -5 -7 -12 -3 -6 4
-8 3 -4 -4 3 -5 0 -12 -6 -15 -11 -3 -10 -7 0 -19 10 -13 9 -18 -5 -29 -15
-12 -16 -12 -10 3 3 10 2 20 -2 22 -10 7 -9 -50 2 -58 4 -3 5 -3 3 0 -3 3 4
16 15 27 12 13 16 24 10 30 -7 7 -3 19 9 34 18 23 18 27 4 49 -12 18 -20 21
-33 14 -12 -6 -22 -5 -31 3 -12 10 -12 9 -2 -4z m62 -23 c14 -18 14 -18 -7 -6
-12 8 -19 18 -16 23 3 4 6 7 7 5 1 -2 8 -12 16 -22z"/>
<path d="M1490 2160 c0 -5 5 -10 10 -10 6 0 10 5 10 10 0 6 -4 10 -10 10 -5 0
-10 -4 -10 -10z"/>
<path d="M3573 2075 c0 -8 4 -12 9 -9 5 3 6 10 3 15 -9 13 -12 11 -12 -6z"/>
<path d="M3575 2040 c-3 -5 -1 -10 4 -10 6 0 11 5 11 10 0 6 -2 10 -4 10 -3 0
-8 -4 -11 -10z"/>
<path d="M1495 1970 c-4 -6 -10 -8 -14 -6 -4 3 -8 -1 -8 -9 0 -10 4 -12 12 -5
7 5 14 8 17 5 2 -3 5 2 5 10 0 18 -3 19 -12 5z"/>
<path d="M3470 1915 c0 -8 4 -15 8 -15 5 0 9 7 9 15 0 8 -4 15 -9 15 -4 0 -8
-7 -8 -15z"/>
<path d="M1549 1821 c8 -5 10 -14 6 -21 -5 -8 -4 -11 3 -6 6 3 15 -2 21 -11 6
-10 11 -14 11 -10 0 14 -32 57 -44 57 -6 0 -5 -4 3 -9z"/>
<path d="M1630 1750 c-8 -5 -12 -12 -9 -15 4 -3 12 1 19 10 14 17 11 19 -10 5z"/>
<path d="M3469 1437 c6 -8 7 -18 3 -22 -4 -5 -1 -5 6 -1 10 6 10 11 1 22 -6 8
-14 14 -16 14 -3 0 0 -6 6 -13z"/>
<path d="M3452 1400 c0 -14 2 -19 5 -12 2 6 2 18 0 25 -3 6 -5 1 -5 -13z"/>
<path d="M1695 1340 c-3 -5 -1 -10 4 -10 6 0 11 5 11 10 0 6 -2 10 -4 10 -3 0
-8 -4 -11 -10z"/>
<path d="M1770 1326 c0 -9 5 -16 10 -16 6 0 10 4 10 9 0 6 -4 13 -10 16 -5 3
-10 -1 -10 -9z"/>
<path d="M1753 1190 c1 -11 5 -20 9 -20 3 0 6 9 5 20 -1 11 -5 20 -9 20 -3 0
-6 -9 -5 -20z"/>
<path d="M3492 1067 c-12 -14 2 -47 15 -34 4 5 1 12 -6 16 -11 7 -11 9 0 13 8
3 11 8 8 12 -3 4 -11 1 -17 -7z"/>
<path d="M1810 1006 c0 -8 7 -17 16 -20 14 -5 14 -9 3 -24 -13 -15 -12 -16 4
-3 16 12 16 16 2 31 -8 9 -12 20 -8 23 3 4 1 7 -5 7 -7 0 -12 -6 -12 -14z"/>
<path d="M3550 1016 c0 -2 8 -10 18 -17 15 -13 16 -12 3 4 -13 16 -21 21 -21
13z"/>
<path d="M3641 973 c7 -12 15 -20 18 -17 3 2 -3 12 -13 22 -17 16 -18 16 -5
-5z"/>
<path d="M1835 939 c-4 -6 -5 -12 -2 -15 2 -3 7 2 10 11 7 17 1 20 -8 4z"/>
<path d="M3675 860 c3 -5 8 -10 11 -10 2 0 4 5 4 10 0 6 -5 10 -11 10 -5 0 -7
-4 -4 -10z"/>
<path d="M1880 805 c0 -8 2 -15 4 -15 2 0 6 7 10 15 3 8 1 15 -4 15 -6 0 -10
-7 -10 -15z"/>
<path d="M2017 485 c3 -8 9 -12 14 -9 12 7 11 11 -5 17 -10 4 -13 1 -9 -8z"/>
<path d="M1990 483 c0 -6 8 -17 18 -24 16 -13 16 -13 2 6 -8 11 -16 22 -17 24
-2 2 -3 0 -3 -6z"/>
<path d="M1897 303 c4 -9 0 -11 -11 -7 -11 4 -16 1 -16 -12 0 -14 -2 -16 -9
-6 -7 11 -9 11 -14 -1 -4 -10 2 -13 21 -12 14 0 28 7 30 14 3 10 9 7 19 -10 9
-15 12 -17 9 -5 -4 10 -1 25 5 32 6 8 10 14 8 15 -30 7 -46 4 -42 -8z"/>
<path d="M1766 262 c-3 -5 1 -9 9 -9 8 0 12 4 9 9 -3 4 -7 8 -9 8 -2 0 -6 -4
-9 -8z"/>
<path d="M1846 238 c5 -8 2 -9 -9 -5 -10 4 -16 2 -14 -5 1 -6 -4 -13 -12 -16
-10 -3 -11 0 -5 9 6 11 3 10 -11 -1 -17 -14 -18 -13 -12 5 6 18 5 18 -5 4 -13
-16 -19 -19 -38 -19 -5 0 -6 -7 -3 -17 4 -11 3 -14 -6 -9 -7 5 -10 2 -9 -6 2
-7 -2 -12 -9 -11 -7 2 -10 -4 -7 -15 5 -14 3 -14 -10 2 -12 15 -16 16 -16 5 0
-12 -2 -12 -11 1 -9 13 -10 12 -5 -2 6 -20 -10 -34 -18 -16 -3 7 -3 2 0 -12 5
-25 5 -25 -12 -5 -16 20 -16 20 -10 -2 4 -12 2 -24 -4 -28 -17 -10 -11 -24 10
-22 11 1 20 5 20 10 0 5 -7 7 -15 3 -22 -8 -18 2 5 14 11 6 20 7 19 3 -1 -4
-1 -15 0 -23 1 -12 3 -12 10 -2 4 8 11 13 15 13 20 -3 24 1 21 19 -2 12 4 24
15 30 30 16 38 11 10 -6 -14 -8 -17 -13 -7 -10 11 4 17 0 18 -12 1 -11 4 -8 9
8 l7 25 12 -28 c6 -16 15 -26 20 -23 5 3 11 -1 15 -9 6 -17 26 -20 26 -4 0 5
-4 8 -9 5 -5 -3 -12 1 -15 10 -3 8 -10 12 -16 9 -5 -3 -10 1 -10 10 0 10 5 13
12 9 6 -4 8 -3 5 3 -4 6 3 13 15 16 12 4 19 9 15 13 -4 4 9 27 29 51 19 23 31
43 26 43 -6 0 -13 -6 -15 -12 -4 -10 -6 -10 -6 0 -1 6 -6 12 -12 12 -5 0 -7
-5 -3 -12z m2 -22 c-10 -7 -15 -15 -13 -18 3 -3 -1 -11 -10 -18 -11 -9 -15 -9
-15 -1 0 7 -5 9 -10 6 -6 -4 -8 -11 -4 -16 3 -5 0 -17 -7 -25 -10 -13 -14 -13
-30 2 -10 9 -24 13 -31 9 -7 -3 -4 0 6 9 10 8 22 13 26 11 5 -3 10 2 13 10 4
9 1 12 -9 8 -7 -3 -14 -1 -14 4 0 11 45 11 56 0 11 -10 26 -9 19 2 -3 6 3 14
12 20 25 15 31 13 11 -3z m-158 -95 c-5 -10 -7 -20 -5 -23 3 -3 -1 -5 -8 -5
-16 0 -18 27 -5 44 15 19 30 5 18 -16z"/>
<path d="M1762 153 c5 -7 14 -10 19 -7 16 10 9 23 -10 21 -15 -1 -17 -4 -9
-14z"/>
<path d="M1596 117 c3 -10 9 -15 12 -12 3 3 0 11 -7 18 -10 9 -11 8 -5 -6z"/>
<path d="M4422 112 c-9 -6 -5 -12 15 -20 24 -11 26 -10 11 1 -10 8 -15 17 -11
20 9 9 1 8 -15 -1z"/>
<path d="M1714 101 c3 -5 -1 -14 -9 -21 -8 -7 -15 -18 -15 -24 0 -6 5 -3 11 7
6 9 14 15 18 13 4 -3 8 4 8 15 1 10 -3 19 -8 19 -6 0 -8 -4 -5 -9z"/>
<path d="M1769 75 c5 -11 20 -21 33 -22 13 0 17 1 11 4 -7 2 -15 3 -17 1 -3
-2 -12 6 -21 17 -16 20 -16 20 -6 0z"/>
<path d="M1636 47 c3 -10 9 -15 12 -12 3 3 0 11 -7 18 -10 9 -11 8 -5 -6z"/>
<path d="M1743 34 c0 -7 6 -10 14 -7 7 3 13 8 13 12 0 4 -6 8 -13 8 -8 0 -14
-6 -14 -13z"/>
<path d="M1780 25 c-7 -9 -8 -15 -2 -15 5 0 12 7 16 15 3 8 4 15 2 15 -2 0 -9
-7 -16 -15z"/>
</g>
</svg>
